<?xml version="1.0" encoding="utf-8"?>
<!-- Generator: Adobe Illustrator 19.1.0, SVG Export Plug-In . SVG Version: 6.00 Build 0)  -->
<svg version="1.1" id="Layer_1" xmlns="http://www.w3.org/2000/svg" xmlns:xlink="http://www.w3.org/1999/xlink" x="0px" y="0px"
	 viewBox="0 0 762 762" style="enable-background:new 0 0 762 762;" xml:space="preserve">
<style type="text/css">
	.st0{fill:#D555F6;}
	.st1{fill:#644EF6;}
	.st2{fill:#3D99F5;}
	.st3{fill:#67E7E2;}
	.st4{fill:#1E1260;}
	.st5{fill:#E0E5E8;}
</style>
<g>
	<g>
		<path d="M651.2,84.2c-12.6,4.1-25,8.7-36.8,12.8c-8.8,35.6-14.5,78-12.7,93.6c3.1,2.3,6.6,4.8,9.7,7.1
			c0.9,12.3,0.9,12.3-11.1,18.1c-4.7-1.4-9.8-2.9-14.6-4.4c-12.9-13.2-17.6-28.6-15.3-46.3c2.2-17,4.4-34.1,6.9-52.9
			c-8,2.5-15.4,4.5-22.6,7.1c-20.3,7.2-33.1-3-31.8-26.8c9.3-2.7,19.3-5.2,29-8.4c11.1-3.6,22.8-6.1,28.7-12.2
			c17.6-5.6,31.9-10.1,45.6-14.5c15.7-6.6,22.3-5.1,22.3-5.1s18.6,3,16.1,22.5C667.9,78.3,660.7,81.1,651.2,84.2z"/>
		<path d="M204.1,308c-20.5-5.5-29.3-25.3-45.6-38c-17.3,24.4-31.4,52.1-61.2,61.4c-24,0.9-36-14.1-46.8-30.5
			c-1.8-2.7-2.4-6.5-2.6-9.8c-1.7-30-4.1-60,1.3-89.8c2.2-12.1,4.2-24.4,14.5-34c11.1,1.4,18.1,10.9,28.5,15
			c1.5,34-7.9,67.6-1.6,102.7c11.7-9.6,19-21,24.1-33.6c5.5-13.7,9.5-28,14.3-41.9c5.8-16.7,11.8-33.2,17.7-49.7
			c14.7,2.1,24.6,8.7,33.7,19.8c0.5,11.4,1.5,24.2,1.6,36.9c0.1,12.4,1.8,24.2,7.9,36.9c9.5-7.1,14.7-15.2,16.9-24.9
			c3.6-15.8,6.5-31.8,9.4-47.8c2.4-13.6,4-27.3,6.4-40.8c1-5.6,3.3-11.1,5.2-17c19.6,5,31.2,16.3,36.6,35.6
			c-5.9,30-11.3,61-18.2,91.7c-4.4,19.3-12,37.6-27,52.4C214.5,304.3,209.4,306.1,204.1,308z"/>
		<path d="M314.8,215.9c14.8-7.8,27.7-14.6,41-21.6c-0.4-7.5-0.4-13.8-1-20.1c-1.1-11.6-2.7-23.1-3.7-34.7
			c-0.8-9.6,0.2-11.4,8.6-19.6c8.3,8.9,16.6,17.8,25.2,27.1c10.8,25.9,11.4,53,5.2,80.7c6.7,23.3,5.5,27-12.3,37.7
			c-15-3.6-16.1-5-25.1-31.1c-13.3,2.5-21.5,12.6-30.8,20.4c-2.2,7.9-4.4,15.5-6.3,22.5c-14,12-15.8,12.3-30.6,4.6
			c-2.4-3.8-5.1-7.9-7.5-11.7c0.3-21.4,1-42.5,0.7-63.5c-0.2-11.3-2.4-22.5-3.1-33.8c-0.6-9.7-1.9-19.9,7.8-27.8
			c8.8,8,17.4,15.8,26.8,24.3C311.3,183.5,312.9,198.1,314.8,215.9z"/>
		<path d="M482.9,101.3c9.4,20,17.8,38.2,25.1,53.8c11.6,2.9,20.4,5.1,31.4,7.9c-4.7,8.3-8.4,15-13,23.1c0.7,2,2,5.6,3.3,9.2
			c5.1,13.7-1.6,31.9-14.7,37.8c-4.1,1.8-9.2,1.1-13,1.5c-5.4-5.9-9.6-10.5-13.7-15.1c1.6-5.9,12.7-6.9,6.9-16.7
			c-11.5,4.1-23.3,8.3-35.1,12.5c-4.2-3.8-7.4-6.7-10.9-9.8c-7.2,10.6-5.9,23-6.1,36.6c-4.1,4.1-8.8,8.8-12.9,12.9
			c-18-4.7-23.6-11.7-20.8-27.3c5.2-28.6,11.2-56.9,17-85.4c0.7-3.3,2.3-6.4,4-10.9c16.2-3.1,19.7-18.1,26.2-32.1
			C465.1,100,473.7,100.7,482.9,101.3z M466.3,149.3c-4.9,12.9-8.6,22.7-13.6,35.7c10.8-4.2,18.3-7.1,27.7-10.7
			C475.6,165.6,471.7,158.8,466.3,149.3z"/>
	</g>
	<g>
		<path d="M160.8,358.2c0.4-7,0.7-12.6,1-18.1c24.6-10.1,52.2-11.7,74.7-30.2c2,0.3,5.9,0.8,9.7,1.3c23.7-8.2,46.4-19.3,71.3-22.2
			c23.7,11.8,24.5,13,21.9,32.6c3.5,3.4,7.1,8.2,11.8,11.5c8.4,5.9,12.3,13.7,13.1,23.6c0.7,10.2,1.7,20.3,2.6,30.6
			c14.1-2.7,28.2-9.9,42.1-21.5c-0.7-7.1-1.3-13.9-1.9-20.8c-1.1-11.1-2.4-22.1-3.1-33.2c-0.5-8.4-0.1-8.4,8-18.2
			c8.3,8.9,16.5,17.6,25.6,27.3c11.1,25.6,11.5,53.2,5.3,81.2c6.8,22.5,5.9,25.6-12,37.8c-18.1-1.9-21.6-16.5-24.1-31.8
			c-14.7,3.3-23.1,13-32.2,20.9c-8.2,31.7-16.6,37.7-37,26.9c-2.6-4-5.2-8.1-8.7-13.4c6.1-38.5-0.8-78-1.2-117.9
			c-17.8,6.1-36.8,12.6-56.7,19.4c-1.2,6.8-2.3,13.5-3.4,20.2c-3.7,21.8-7.7,43.6-11,65.5c-1.3,8.6-0.8,17.4-1.2,25.9
			c4.9,3.3,8.5,5.7,12.1,8.1c6.3,8.8,2.5,16.2-12.3,22.9c-2.8-0.9-6.1-1.9-9.4-2.9c-2.8-0.9-5.6-1.7-7.9-2.4
			c-17-16.4-21.4-36.2-18.3-58.5c2.8-19.4,5.2-38.8,7.9-59.2c-6.3,1.5-12.3,3-18.7,4.6l-16.2,6.9C172.4,382.1,159.4,382,160.8,358.2
			L160.8,358.2z"/>
		<path d="M565.5,273.1c2.5,11.3-3.7,17.9-12.3,22.6c-14.6,8-29.6,15.3-44.3,23.2c-2.9,1.5-5.2,3.9-10.1,7.7
			c15.1,4.3,25.9-4.5,37.5-4.9c6.5,3.4,12.9,6.7,20.7,10.7c-0.6,2.7-0.4,6.4-2.1,8.7c-7,9.1-15.2,16.7-27.1,19.1
			c-8.2,1.7-16.2,3.9-25.6,6.2c-1.7,6.7-3.5,13.5-5.7,22.1c23.4-4.4,43.8-11.1,62.8-23c7.3,4.2,13.8,8.1,20,11.6
			c-0.9,14.2-8.8,21.9-19,26.2c-17.1,7.3-34.6,14.4-52.5,19.1c-29.4,7.8-49.1-11.8-44-42.5c2.2-13.1,5.4-25.9,7.8-37
			c-5.9-10.8-11-20.1-17-30.9c6.2-5.3,10.8-10.7,16.6-13.6c19.3-9.8,39.1-18.4,58.5-27.9C541.7,264.6,553,264.4,565.5,273.1z"/>
	</g>
	<g>
		<path d="M152.3,521c10.7,9.9,20.4,18.9,31.6,29.3c1.7,16.5,3.6,34.4,5.7,54.2c18.4-7.2,34.5-14.8,49.9-26.3
			c-0.3-6.6-0.3-13.4-1-20.2c-1.5-14.9-3.3-29.7-5-44.6c-1-8.7,0.7-16.6,9.4-23.6c9.8,10.5,19.3,20.8,31.2,33.6
			c14.6,29.6,12.4,63.6,6,98.3c9,23,6.6,30.3-15.6,44c-18.3-6.2-27.7-19.2-26.6-40.9c-17,6.7-28.6,17-39.9,27.6
			c-2.5,9.3-4.9,18.3-7.1,26.8c-7.1,6.5-13.3,13-22.5,12.4c-12.8-2.5-17.4-12.8-24.3-22.1c1.1-18.4,3.1-37.4,3.1-56.4
			c0-15.6-2.7-31.3-3.9-46.9c-0.7-9.3-1.4-18.6-1.1-27.9C142.4,531.2,144.6,524.5,152.3,521z"/>
		<path d="M634.3,511.4c19.7,18.2,39.5,9.8,61.1,4.7c3.5,1.6,8.8,4.1,13.5,6.2c3.1,17.1-2.9,26.6-18,30.9c-21.2,6-40.9,1.7-60.1-7.7
			c-3.9-1.9-7.7-4.2-11.9-6.5c-6.6,4-9.4,10.2-12,16.6c-2.8,6.8-5.1,14-8.4,20.5c-2.8,5.5-6.8,10.3-10.2,15.4
			c-5.6-1.1-9.4-1.9-13.2-2.7c-6.5-9.4-15.2-17.5-14.8-29.8c0.5-18.2,1.1-36.3,2.7-54.4c1.4-15.6,3.9-31.2,6.6-46.7
			c0.9-5.1,3.9-9.8,6-14.8c13.9-0.3,25.6,1.3,32,15.2c-2,10.2-4.1,20.5-6.1,30.8c20.1-18.2,34-41.2,57-57.9
			c7.2,3.7,14.9,7.6,21.3,10.8c4.5,8.5,1.5,14.2-2.8,19.2c-5.1,6-10.8,11.5-15.9,17.5C652.4,489.2,643.8,499.9,634.3,511.4z"/>
		<path d="M536.5,566c5.2,4.3,10.7,8.9,17.1,14.1c-4.6,7.1-8.2,12.7-11.1,17.2c-18.2,7.2-35.2,10.7-53.2,10.8
			c-24.1,0.1-41.8-9.3-51.8-31.7c-1.2-2.6-2.9-5-4.6-7.9c-3.8,5.4-7.1,10.1-11,15.6c5.6,14.5,8.8,29.3-3.8,42.3
			c-5.8,6-12.1,10.4-21.1,6.2c-4.2-4.3-8.7-8.7-13.5-13.5c0.9-6.2,13.1-6.7,8.3-17.4c-11.6,4.1-23.3,8.3-36.7,13
			c-3.2-2.6-6.6-5.3-10.5-8.5c-7.3,10.8-5.5,22.8-6.7,35.9c-3.9,3.8-8.6,8.4-12.2,11.9c-11.8-1.1-16.9-7.6-22.3-17.5
			c5-33.7,12.5-69.2,20.3-102.3c7.7-6.3,14.3-10.2,18.7-15.8c4.4-5.6,6.7-12.9,10.3-20.2c9,0.9,17.6,1.8,26.1,2.6
			c8.8,19.1,17,36.9,24.9,54.1c9.2,1.9,17.2,3.5,25.7,5.2c1.9-26.9,15.2-47.6,35.1-64.9c9.3-8,17.9-16.9,27.1-25
			c3.9-3.5,8.6-6.2,13.6-9.8c8.5,3.9,16.4,7.4,23.5,10.6c4.9,13,3.6,20.2-5.2,27.3c-4.6,3.7-10.1,6.2-14.9,9.6
			c-16.6,11.8-31,25.8-41.1,43.6c-4.3,7.6-6.7,15.7,2.5,22.6C492.2,577,513.6,570.4,536.5,566z M351.4,583.3
			c7.8-3.2,15.6-6.3,24.2-9.8c-4.5-8.5-8.2-15.5-13.5-25.4c-5.2,13.2-9.1,23-12.9,32.8C349.9,581.7,350.7,582.5,351.4,583.3z"/>
	</g>
</g>
</svg>
