<?xml version="1.0" encoding="utf-8"?>
<!-- Generator: Adobe Illustrator 19.1.0, SVG Export Plug-In . SVG Version: 6.00 Build 0)  -->
<svg version="1.1" id="Layer_1" xmlns="http://www.w3.org/2000/svg" xmlns:xlink="http://www.w3.org/1999/xlink" x="0px" y="0px"
	 viewBox="0 0 1664 230" style="enable-background:new 0 0 1664 230;" xml:space="preserve">
<style type="text/css">
	.st0{fill:#D555F6;}
	.st1{fill:#644EF6;}
	.st2{fill:#3D99F5;}
	.st3{fill:#67E7E2;}
	.st4{fill:#1E1260;}
	.st5{fill:#E0E5E8;}
</style>
<g>
	<path d="M917.3,132.1c1-7.1,2.1-13.8,3-20.6c1.6-11,2.9-22.1,4.9-33c1.5-8.2,1.9-8.2,12.1-15.7c6,10.6,11.9,21,18.4,32.6
		c4.7,27.5-1.4,54.4-14,80.1c1.3,23.5-0.4,26.3-20.6,33.9c-17.1-6.1-17.1-21.1-15.9-36.6c-15-0.3-25.5,7.2-36.2,12.7
		c-15.5,28.9-25,32.7-42.3,17.3c-1.6-4.4-3.2-9.1-5.3-15.1c15-36,17.7-75.9,26.8-114.8c-18.7,1.7-38.7,3.5-59.7,5.4
		c-2.7,6.4-5.4,12.6-8.1,18.8c-8.8,20.3-17.8,40.5-26.2,61c-3.3,8-4.9,16.7-7.3,24.9c4,4.4,6.9,7.6,9.9,10.7
		c4.1,10-1.4,16.4-17.4,19.3c-2.6-1.5-5.5-3.3-8.5-5c-2.5-1.5-5.1-3-7.1-4.2c-12.6-20-12.2-40.3-3.9-61.2
		c7.3-18.2,14.3-36.5,21.7-55.6c-6.5,0-12.7,0-19.2,0c-6.6,8.7-16.3,9.8-26.2,10.6c-13.2,1.1-26.4,2.5-38.8,3.7
		c-16.9,32.5-32.6,72.4-34.5,88c2.5,2.9,5.2,6.3,7.7,9.2c-2.1,12.1-2.1,12.1-15.1,14.9c-4.2-2.5-8.9-5.2-13.2-7.7
		c-9.4-15.9-10.3-31.9-3.9-48.6c6.2-16,12.4-32,19.2-49.8c-8.4,0.5-16,0.7-23.6,1.5c-21.4,2.2-31.5-10.7-24.6-33.5
		c9.7-0.4,20-0.5,30.1-1.3c11.6-0.9,23.6-0.5,30.8-5.1c18.4-1.3,33.4-2.3,47.7-3.3c2-6.7,3.5-11.8,5.1-17c26.3-4,53.5,1,79.8-11.7
		c1.9,0.7,5.5,2.1,9.1,3.5c24.9-2.4,49.7-7.8,74.5-4.7c20.2,17.1,20.7,18.5,13.6,36.9c2.6,4.2,5,9.6,8.8,13.9
		c6.8,7.7,8.7,16.2,7.1,26c-1.7,10.1-3.2,20.2-4.8,30.3C885.7,143.7,901.1,140.1,917.3,132.1z"/>
	<path d="M208.8,209.2c-18.7-10.2-22.5-31.5-35.3-47.8c-22.6,19.6-42.9,43.1-74,45.2c-23.5-4.8-31.6-22.2-38.3-40.7
		c-1.1-3-0.8-6.9-0.2-10.1c5.5-29.5,10.3-59.2,22.6-86.9c5-11.2,9.8-22.7,22.1-29.6c10.5,4,15,14.8,24.1,21.4
		c-6.6,33.4-23.7,63.8-25.9,99.4c13.6-6.5,23.4-15.9,31.3-27c8.6-12,15.8-24.9,23.8-37.4c9.6-14.8,19.3-29.5,28.9-44.1
		c13.8,5.5,21.8,14.3,28.1,27.2c-2.2,11.2-4.2,23.8-7.2,36.2c-2.9,12.1-3.9,23.9-1.1,37.7c11-4.6,17.9-11.3,22.3-20.2
		c7.2-14.5,13.9-29.3,20.4-44.2c5.5-12.6,10.3-25.6,15.9-38.2c2.3-5.2,5.9-9.9,9.1-15.3c17.8,9.5,26.4,23.3,27.1,43.3
		c-12.8,27.7-25.4,56.6-39.4,84.8c-8.8,17.7-20.6,33.7-38.7,44.5C219.8,208,214.4,208.5,208.8,209.2z"/>
	<path d="M1126,40.8c8,12.1,15.3,23.2,23.8,36c-2.2,16.5-4.6,34.3-7.3,54c19.6-2.6,37-6.2,54.7-13.7c1.3-6.5,2.9-13.1,3.8-19.9
		c2.1-14.8,3.8-29.7,5.7-44.5c1.1-8.7,4.6-15.9,14.7-20.7c7,12.5,13.8,24.7,22.3,40c7.2,32.2-3,64.7-17.4,96.9
		c3.3,24.5-0.8,31-25.5,39.1c-16.3-10.3-22.4-25.2-16.2-46c-18.1,2.5-31.8,9.8-45.3,17.4c-4.6,8.4-9.1,16.6-13.3,24.3
		c-8.4,4.6-16,9.5-24.8,6.7c-11.9-5.4-13.9-16.6-18.3-27.2c5.4-17.6,11.9-35.6,16.3-54.1c3.7-15.2,4.8-31,7.3-46.5
		c1.5-9.2,3.1-18.4,5.5-27.4C1114,48.3,1117.7,42.4,1126,40.8z"/>
	<path d="M1596.6,145.6c14.8,22.4,36.1,18.8,58.2,19.1c3.1,2.4,7.6,6,11.6,9.2c-1,17.4-9.1,25.1-24.8,25.7
		c-22,0.9-40.1-8.1-56.5-21.7c-3.4-2.8-6.5-5.9-10-9.1c-7.3,2.4-11.5,7.7-15.6,13.3c-4.3,6-8.2,12.4-13,18c-4,4.7-9,8.4-13.5,12.5
		c-5.1-2.4-8.6-4.1-12.2-5.8c-4.1-10.7-10.6-20.6-7.3-32.4c4.8-17.5,9.7-35,15.5-52.2c5.1-14.9,11.2-29.4,17.5-43.8
		c2.1-4.7,6.1-8.6,9.4-12.9c13.6,3,24.5,7.3,27.5,22.3c-4.4,9.4-8.8,19-13.2,28.5c23.8-12.9,42.8-32,69.1-42.8
		c6.1,5.3,12.7,10.9,18.1,15.5c2.4,9.4-1.9,14.1-7.2,18c-6.4,4.6-13.2,8.6-19.6,13.2C1619.4,128.4,1608.6,136.7,1596.6,145.6z"/>
	<path d="M1091.4,79.2c-0.2,11.6-7.8,16.5-17.3,19.1c-16.1,4.3-32.4,7.9-48.5,12c-3.1,0.8-6,2.6-11.6,5.1
		c13.7,7.8,26.2,1.8,37.6,4.1c5.5,4.8,11,9.6,17.6,15.3c-1.2,2.5-1.9,6.2-4.1,8c-8.9,7.2-18.7,12.6-30.9,12.1
		c-8.3-0.3-16.7-0.1-26.3-0.1c-3.3,6.1-6.6,12.3-10.8,20.2c23.8,1.3,45.1-0.4,66.4-7.5c6.1,5.8,11.5,11.1,16.6,16
		c-4.3,13.6-13.8,19.2-24.6,21c-18.4,3.1-37,5.8-55.5,6.2c-30.4,0.6-44.9-23.1-32.7-51.7c5.2-12.2,11.4-23.9,16.3-34.1
		c-3.2-11.9-6-22.2-9.2-34.1c7.3-3.6,13-7.9,19.3-9.3c21-4.9,42.4-8.6,63.5-13.3C1070.2,65.3,1081.3,67.9,1091.4,79.2z"/>
	<path d="M338.2,145.9c16.2-4.1,30.3-7.6,45-11.3c1.4-7.3,2.9-13.5,3.8-19.7c1.7-11.5,2.8-23.1,4.6-34.6c1.5-9.5,2.9-11,13-17
		c6,10.6,11.9,21.2,18.1,32.3c4.4,27.8-1.5,54.2-14.1,79.7c1,24.3-1,27.6-20.8,33.7c-13.7-7-14.5-8.6-17-36.1
		c-13.5-0.7-23.8,7.1-34.8,12.5c-4.1,7.2-7.9,14-11.5,20.4c-16.4,8.4-18.2,8.2-30.8-2.8c-1.5-4.3-3.1-8.9-4.5-13.2
		c5.4-20.8,11.1-41,15.7-61.5c2.5-11,3-22.4,5-33.5c1.7-9.5,2.9-19.8,14.2-25.2c6.6,9.8,13.2,19.5,20.3,30
		C342.4,113.6,340.5,128.1,338.2,145.9z"/>
	<path d="M1488.6,175.5c4.1,5.4,8.3,11.1,13.2,17.8c-6.1,5.8-11,10.4-14.9,14c-19.3,2.7-36.8,2.1-54.2-2.1
		c-23.4-5.6-38.4-18.9-42.9-43.1c-0.5-2.8-1.6-5.5-2.6-8.7c-4.9,4.3-9.3,8.2-14.4,12.6c2,15.4,1.6,30.5-13.7,40.2
		c-7,4.4-14.2,7.2-22,1c-3.1-5.1-6.4-10.5-9.9-16.3c2.3-5.8,14.3-3.4,12.2-14.9c-12.2,1.2-24.6,2.5-38.8,4
		c-2.5-3.3-5.1-6.7-8.1-10.7c-9.6,8.7-10.7,20.9-15,33.3c-4.7,2.7-10.3,6.1-14.7,8.6c-11.3-3.9-14.6-11.4-17.6-22.3
		c12.9-31.6,28.5-64.3,44-94.6c9-4.3,16.3-6.5,21.9-10.9c5.6-4.4,9.6-11,14.8-17.2c8.5,3,16.7,5.9,24.8,8.7
		c4,20.6,7.8,39.9,11.4,58.5c8.5,4,15.9,7.4,23.7,11.1c8.2-25.6,26.1-42.7,49.5-54.7c10.9-5.6,21.4-12.1,32.2-17.9
		c4.6-2.5,9.8-4,15.5-6.2c7.3,5.8,14.2,11.1,20.3,15.9c1.6,13.8-1.3,20.5-11.5,25.3c-5.3,2.5-11.2,3.7-16.7,5.8
		c-18.9,7.5-36.2,17.7-50.3,32.7c-6,6.4-10.2,13.7-2.9,22.6C1443,175.8,1465.3,174.4,1488.6,175.5z M1304.7,148.4
		c8.3-1.2,16.7-2.5,25.9-3.8c-2.4-9.4-4.3-17-7.1-27.9c-8.2,11.6-14.3,20.2-20.3,28.8C1303.7,146.5,1304.2,147.5,1304.7,148.4z"/>
	<path d="M528.6,74.4c4.3,21.7,8.3,41.3,11.7,58.2c10.6,5.6,18.6,9.8,28.6,15.1c-6.5,7-11.7,12.5-18.1,19.4c0.2,2.1,0.6,5.9,1,9.7
		c1.7,14.5-9.1,30.6-23.2,33.2c-4.4,0.8-9.3-1.1-13-1.6c-3.8-7-6.8-12.5-9.8-17.9c2.9-5.4,13.9-3.7,10.7-14.6
		c-12.1,1.2-24.5,2.5-37,3.8c-3.2-4.7-5.6-8.3-8.3-12.1c-9.5,8.6-11.2,21-14.6,34.1c-4.9,3-10.6,6.5-15.6,9.5
		c-16.4-8.9-20.2-17-13.7-31.5c11.8-26.5,24.3-52.7,36.7-78.9c1.4-3.1,3.8-5.7,6.4-9.6c16.5,0.8,23.4-12.9,33-25
		C511.6,68.9,519.8,71.5,528.6,74.4z M501.2,117c-7.8,11.4-13.8,20-21.7,31.5C491,147,499,146,509,144.7
		C506.3,135.1,504.2,127.6,501.2,117z"/>
</g>
</svg>
